<svg width="21" height="20" viewBox="0 0 21 20" fill="none" xmlns="http://www.w3.org/2000/svg">
<path d="M18.0584 0H2.94568C1.59663 0 0.5 1.441 0.5 3.2137V16.7863C0.5 18.559 1.59663 20 2.94568 20H18.0543C19.4034 20 20.5 18.559 20.5 16.7863V3.21914C20.5041 1.44644 19.4075 0 18.0584 0ZM19.3868 16.7863C19.3868 17.7488 18.7909 18.5318 18.0584 18.5318H2.94568C2.21322 18.5318 1.61732 17.7488 1.61732 16.7863V3.21914C1.61732 2.25666 2.21322 1.47363 2.94568 1.47363H18.0543C18.7868 1.47363 19.3827 2.25666 19.3827 3.21914V16.7863H19.3868Z" fill="#00B2FF"/>
<path d="M13.1133 9.83142L18.0047 4.06742C18.2323 3.79553 18.253 3.33333 18.0461 3.02881C17.8392 2.72974 17.4874 2.70255 17.2557 2.97443L10.5104 10.9298L9.19442 9.38553C9.19029 9.38009 9.18615 9.37465 9.18615 9.36922C9.15718 9.33115 9.12821 9.29852 9.09511 9.2659L3.74026 2.969C3.50852 2.69711 3.15677 2.7243 2.94986 3.02881C2.74295 3.33333 2.76364 3.79553 2.99538 4.06742L7.94468 9.88036L3.01607 15.9434C2.79261 16.2208 2.78019 16.683 2.99124 16.982C3.10297 17.1343 3.25195 17.2159 3.40093 17.2159C3.53749 17.2159 3.67405 17.1506 3.78164 17.0201L8.78474 10.87L10.1421 12.4633C10.2497 12.5884 10.3821 12.6482 10.5145 12.6482C10.6469 12.6482 10.7835 12.5829 10.887 12.4579L12.2815 10.8157L17.2557 17.0256C17.3633 17.1615 17.504 17.2267 17.6405 17.2267C17.7895 17.2267 17.9343 17.1506 18.0461 16.9984C18.2571 16.7047 18.2488 16.2371 18.0254 15.9598L13.1133 9.83142Z" fill="#00B2FF"/>
</svg>
